<svg width="14" height="23" viewBox="0 0 14 23" fill="none" xmlns="http://www.w3.org/2000/svg">
<path d="M6.16233 22.6665V19.9998H3.49567V18.3245H6.16233V14.6202C4.39944 14.4019 2.93167 13.6281 1.759 12.2985C0.586333 10.9687 0 9.41584 0 7.63984C0 5.70228 0.682445 4.05573 2.04733 2.70017C3.41245 1.34439 5.06333 0.666504 7 0.666504C8.93667 0.666504 10.5876 1.34439 11.9527 2.70017C13.3176 4.05573 14 5.70184 14 7.6385C14 9.41406 13.4137 10.9671 12.241 12.2975C11.0683 13.6277 9.60056 14.4019 7.83767 14.6202V18.3245H10.5043V19.9998H7.83767V22.6665H6.16233ZM6.99767 12.9912C8.47211 12.9912 9.72856 12.4728 10.767 11.4362C11.8054 10.3993 12.3247 9.14351 12.3247 7.66884C12.3247 6.19439 11.8063 4.93795 10.7697 3.8995C9.73278 2.86106 8.477 2.34184 7.00233 2.34184C5.52789 2.34184 4.27144 2.86017 3.233 3.89684C2.19456 4.93373 1.67533 6.1895 1.67533 7.66417C1.67533 9.13862 2.19367 10.3951 3.23033 11.4335C4.26722 12.4719 5.523 12.9912 6.99767 12.9912Z" fill="#1C1B1F"/>
</svg>
