<svg width="149" height="41" viewBox="0 0 149 41" fill="none" xmlns="http://www.w3.org/2000/svg">
<g clip-path="url(#clip0_2045_44)">
<path d="M84.662 13.7124C84.662 9.41611 84.7361 5.41611 84.9583 1.7124L73.625 3.86055V4.89759L74.7361 5.04574C75.5509 5.11981 76.0694 5.41611 76.3657 5.86055C76.662 6.37907 76.8842 7.11981 77.0324 8.23092C77.1805 10.3791 77.3287 15.268 77.2546 22.9717C77.2546 30.6013 77.1805 35.4161 77.0324 37.268C81.1064 38.1568 84.2916 38.5272 86.662 38.5272C91.1064 38.5272 94.5879 37.268 97.1064 34.6754C99.625 32.1568 100.958 28.6013 100.958 24.2309C100.958 20.7494 99.9953 17.8605 98.0694 15.5643C96.1435 13.268 93.699 12.1568 90.8101 12.1568C88.8842 12.1568 86.8842 12.6754 84.662 13.7124ZM84.8842 36.5272C84.7361 34.1568 84.5879 27.0457 84.5879 15.4161C85.2546 15.1939 86.1435 15.0457 87.2546 15.0457C89.0324 15.0457 90.4398 15.9346 91.4768 17.7865C92.5138 19.6383 93.0324 21.8605 93.0324 24.6754C93.0324 28.1568 92.4398 30.9717 91.2546 33.342C90.0694 35.6383 88.5879 36.8235 86.7361 36.8235C86.1435 36.6754 85.5509 36.6013 84.8842 36.5272ZM31.1064 2.45314H1.47681V3.93462L3.03236 4.08277C4.21755 4.30499 5.03236 4.74944 5.55088 5.41611C6.0694 6.15685 6.36569 7.34203 6.43977 8.97166C7.03236 16.9717 7.03236 24.4531 6.43977 31.342C6.29162 32.9717 5.99533 34.1568 5.55088 34.8976C5.03236 35.6383 4.21755 36.0828 3.03236 36.2309L1.47681 36.4531V37.9346H20.5879V36.4531L18.5879 36.305C18.0999 36.2642 17.6252 36.125 17.1923 35.8958C16.7595 35.6667 16.3775 35.3523 16.0694 34.9717C15.5509 34.2309 15.2546 33.0457 15.1805 31.4161C14.9583 28.4531 14.8101 25.0457 14.8101 21.268L18.8101 21.342C20.9583 21.4161 22.4398 23.0457 23.1805 26.305H24.662V14.2309H23.1805C22.4398 17.4161 21.0324 19.0457 18.8101 19.1198L14.8101 19.1939C14.8101 12.5272 14.9583 7.78648 15.1805 4.89759H21.0324C25.1805 4.89759 27.9953 7.56425 29.625 12.8976L31.4027 12.3791L31.1064 2.45314ZM27.625 25.268C27.625 29.1198 28.7361 32.305 30.8842 34.8235C33.0324 37.342 36.2175 38.5272 40.2175 38.5272C44.2175 38.5272 47.4768 37.268 49.8472 34.6754C52.2175 32.1568 53.3287 28.9717 53.3287 25.1198C53.3287 21.268 52.2175 18.0828 50.0694 15.5643C47.9212 13.0457 44.7361 11.8605 40.7361 11.8605C36.7361 11.8605 33.4768 13.1198 31.1064 15.7124C28.7361 18.2309 27.625 21.4161 27.625 25.268ZM44.1435 16.8235C45.0324 18.9717 45.4027 21.7865 45.4027 25.1939C45.4027 33.0457 43.7731 36.8976 40.5879 36.8976C38.9583 36.8976 37.699 35.7865 36.8101 33.5643C35.9212 31.342 35.5509 28.5272 35.5509 25.1939C35.5509 17.4161 37.1805 13.5643 40.3657 13.5643C41.9953 13.4902 43.2546 14.6013 44.1435 16.8235ZM106.736 34.8235C109.181 37.268 112.292 38.5272 115.995 38.5272C118.292 38.5272 120.292 38.0828 122.069 37.1198C123.847 36.2309 125.255 35.1198 126.218 33.7865L125.477 32.8976C123.847 34.1568 121.995 34.7494 119.847 34.7494C116.884 34.7494 114.588 33.7865 113.032 31.7865C111.403 29.7865 110.662 27.268 110.81 24.0087H126.662C126.662 20.4531 125.773 17.5643 123.921 15.268C122.069 13.0457 119.477 11.9346 116.143 11.9346C111.995 11.9346 108.81 13.268 106.514 15.8605C104.218 18.4531 103.106 21.6383 103.106 25.4161C103.106 29.268 104.292 32.3791 106.736 34.8235ZM112.218 16.2309C113.032 14.4531 114.069 13.5643 115.477 13.5643C117.699 13.5643 118.81 16.3791 118.81 22.0828L110.958 22.2309C111.032 20.0087 111.403 18.0087 112.218 16.2309ZM146.588 13.268C144.588 12.3791 142.069 11.8605 139.032 11.8605C135.921 11.8605 133.477 12.6754 131.625 14.2309C129.773 15.7865 128.81 17.7124 128.81 20.0087C128.81 22.0087 129.403 23.5643 130.514 24.6754C131.625 25.7865 133.403 26.7494 135.699 27.5643C137.773 28.305 139.255 29.0457 139.995 29.7124C140.736 30.4531 141.181 31.268 141.181 32.3791C141.181 33.4161 140.81 34.3791 139.995 35.1198C139.255 35.9346 138.218 36.305 136.884 36.305C133.625 36.305 131.181 33.9346 129.477 29.1939L128.218 29.5643L128.514 36.9717C131.181 38.0087 134.143 38.5272 137.403 38.5272C140.81 38.5272 143.403 37.7865 145.329 36.2309C147.255 34.7494 148.218 32.6013 148.218 29.9346C148.218 28.1568 147.773 26.6754 146.81 25.5643C145.847 24.4531 144.292 23.4902 142.069 22.6013C139.625 21.7124 137.921 20.8976 137.032 20.1568C136.143 19.4161 135.699 18.5272 135.699 17.4161C135.699 16.305 135.995 15.4161 136.662 14.6754C137.329 13.9346 138.143 13.6383 139.18 13.6383C142.143 13.6383 144.292 15.7865 145.625 20.0087L146.884 19.6383L146.588 13.268ZM75.3287 12.6013C74.2916 12.0828 73.1805 11.8605 71.9212 11.8605C70.662 11.8605 69.4027 12.3791 67.9953 13.4161C66.5879 14.4531 65.5509 15.8606 64.7361 17.7865L64.8101 11.8605L53.5509 14.0828V15.1198L54.662 15.1939C56.0694 15.342 56.8842 16.4531 57.0324 18.4531C57.4768 23.0457 57.4768 27.9346 57.0324 33.1198C56.8842 35.1198 56.0694 36.1568 54.662 36.3791L53.5509 36.5272V37.9346H69.2546V36.5272L67.2546 36.3791C65.8472 36.2309 65.0324 35.1198 64.8842 33.1198C64.4398 28.8235 64.3657 24.2309 64.7361 19.4902C65.1805 18.7494 66.1435 18.305 67.625 18.1568C69.1064 18.0087 70.8101 18.4531 72.5879 19.4902L75.3287 12.6013Z" fill="#1F1F1F"/>
</g>
<defs>
<clipPath id="clip0_2045_44">
<rect width="148.148" height="40" fill="white" transform="translate(0.736084 0.230957)"/>
</clipPath>
</defs>
</svg>
