<svg width="60" height="65" viewBox="0 0 60 65" fill="none" xmlns="http://www.w3.org/2000/svg">
<g clip-path="url(#clip0_2045_46)">
<path d="M13.4474 26.2012V25.8092C13.6731 25.7189 13.8854 25.5981 14.0784 25.4502C14.1341 25.4039 14.1731 25.3407 14.1894 25.2702C14.2575 24.9643 14.2897 24.6515 14.2854 24.3382C14.3164 23.6302 14.3324 23.2092 14.3324 23.0722V18.8802C14.3324 18.1782 14.3164 17.4872 14.2854 16.8122C14.3003 16.5156 14.2613 16.2188 14.1704 15.9362C14.0987 15.8371 13.9953 15.7655 13.8774 15.7332C13.4973 15.6687 13.1117 15.6419 12.7264 15.6532V15.1602C14.0434 15.1922 14.8554 15.2082 15.1704 15.2082C15.5154 15.2082 16.2907 15.1922 17.4964 15.1602V15.6532C17.104 15.6419 16.7115 15.6686 16.3244 15.7332C16.2098 15.7612 16.1084 15.828 16.0374 15.9222C15.9459 16.1619 15.9041 16.4177 15.9144 16.6742C15.9064 16.7782 15.8904 17.5122 15.8674 18.8812V24.1172C15.8674 24.6642 15.883 25.1088 15.9144 25.4512C16.5314 25.4832 16.5994 25.4982 17.2074 25.4982C18.3079 25.543 19.4096 25.4486 20.4864 25.2172C20.5641 25.0441 20.627 24.8648 20.6744 24.6812L21.0004 23.3932H21.5354C21.4164 24.1642 21.2997 25.0692 21.1854 26.1082C21.0111 26.1428 20.8352 26.1685 20.6584 26.1852C20.3774 26.1962 19.9434 26.2012 19.3594 26.2012L15.0294 26.1542C14.5114 26.1542 13.9824 26.1702 13.4474 26.2012Z" fill="black"/>
<path d="M27.3114 25.7081V26.2011C26.1644 26.1691 25.4124 26.1541 25.0514 26.1541L22.5624 26.2011V25.7081C22.9473 25.7191 23.3324 25.6903 23.7114 25.6221C23.825 25.5927 23.9266 25.5287 24.0024 25.4391C24.0906 25.1992 24.1317 24.9446 24.1234 24.6891C24.1294 24.5801 24.1444 23.8418 24.1684 22.4741V18.8761C24.1684 18.1742 24.1534 17.4855 24.1234 16.8101C24.1369 16.5138 24.0973 16.2175 24.0064 15.9351C23.9337 15.8362 23.8298 15.7646 23.7114 15.7321C23.3319 15.6682 22.9471 15.6414 22.5624 15.6521V15.1602C23.5864 15.1922 24.3814 15.2072 24.9394 15.2072C25.4774 15.2072 26.2664 15.1922 27.3114 15.1602V15.6521C26.924 15.6411 26.5365 15.6679 26.1544 15.7321C26.0405 15.7598 25.9401 15.8271 25.8714 15.9221C25.7808 16.1617 25.7396 16.4172 25.7504 16.6731C25.7424 16.7751 25.7294 17.5092 25.7034 18.8761V22.4741C25.7034 23.1831 25.7134 23.8711 25.7294 24.5411C25.7125 24.8375 25.7522 25.1345 25.8464 25.4161C25.9193 25.5158 26.0235 25.5883 26.1424 25.6221C26.5281 25.6907 26.9198 25.7196 27.3114 25.7081ZM25.7504 16.6731C25.7424 16.7751 25.7294 17.5092 25.7034 18.8761V22.4741" fill="black"/>
<path d="M29.1034 26.2012V25.7092C29.4811 25.73 29.8595 25.686 30.2224 25.5792C30.2584 25.5673 30.2915 25.5481 30.3197 25.5228C30.3479 25.4975 30.3706 25.4666 30.3864 25.4322C30.4671 25.1685 30.5059 24.8938 30.5014 24.6182C30.5334 23.9322 30.5484 23.3442 30.5484 22.8482V16.5252C30.5558 16.4121 30.5447 16.2986 30.5154 16.1892C30.4407 16.0593 30.3403 15.946 30.2204 15.8562C30.1238 15.7739 30.0072 15.7187 29.8824 15.6962C29.6013 15.6626 29.3184 15.6482 29.0354 15.6532V15.1602C29.9684 15.1922 30.5584 15.2082 30.7984 15.2082C31.2084 15.2082 31.6094 15.1922 32.0154 15.1602C32.4684 15.7352 32.801 16.1585 33.0134 16.4302L34.6674 18.4072L37.0814 21.2312C37.8534 22.1312 38.4737 22.8392 38.9424 23.3552C39.2394 23.6962 39.4894 23.9638 39.6924 24.1582V18.4982C39.6924 17.9901 39.6774 17.3952 39.6454 16.7192C39.6479 16.4489 39.6125 16.1796 39.5404 15.9192C39.5026 15.8497 39.4418 15.7955 39.3684 15.7662C39.0032 15.6722 38.6259 15.6341 38.2494 15.6532V15.1602C38.8904 15.1922 39.5364 15.2082 40.1964 15.2082C40.8134 15.2082 41.3747 15.1922 41.8804 15.1602V15.6532C41.5045 15.6338 41.1278 15.6719 40.7634 15.7662C40.7266 15.7808 40.6932 15.8027 40.665 15.8306C40.6368 15.8584 40.6145 15.8916 40.5994 15.9282C40.5162 16.1926 40.4777 16.4691 40.4854 16.7462C40.4544 17.4242 40.4374 18.0132 40.4374 18.5092V22.2442C40.4374 23.0022 40.4534 24.4145 40.4854 26.4812H39.6814L39.4794 26.2662C39.4484 26.2602 39.3804 26.1772 39.3534 26.1542C39.2437 26.0563 39.1405 25.9514 39.0444 25.8402C38.5974 25.3442 38.268 24.9698 38.0564 24.7172L37.0114 23.4382L31.2654 16.7832V22.8102C31.2654 23.3242 31.2794 23.9282 31.3164 24.6272C31.3124 24.8977 31.3471 25.1674 31.4194 25.4282C31.4356 25.4647 31.4593 25.4975 31.4889 25.5243C31.5185 25.5512 31.5534 25.5716 31.5914 25.5842C31.9558 25.6863 32.3344 25.7286 32.7124 25.7092V26.2012C32.2374 26.1702 31.7124 26.1542 31.1444 26.1542C30.5174 26.1542 29.8354 26.1702 29.1034 26.2012Z" fill="black"/>
<path d="M48.0314 25.7082V26.2002C46.8864 26.1692 46.1354 26.1532 45.7714 26.1532L43.2834 26.2002V25.7082C43.67 25.7191 44.0567 25.6903 44.4374 25.6222C44.5498 25.5925 44.6501 25.5286 44.7244 25.4392C44.8134 25.1995 44.8539 24.9446 44.8434 24.6892C44.8534 24.5802 44.8674 23.8412 44.8904 22.4742V18.8762C44.8904 18.1732 44.8747 17.4845 44.8434 16.8102C44.8582 16.5139 44.8193 16.2175 44.7284 15.9352C44.6572 15.8356 44.5536 15.7638 44.4354 15.7322C44.0549 15.6682 43.6691 15.6414 43.2834 15.6522V15.1602C44.3084 15.1912 45.1034 15.2072 45.6624 15.2072C46.1994 15.2072 46.989 15.1915 48.0314 15.1602V15.6522C47.645 15.6411 47.2585 15.6679 46.8774 15.7322C46.763 15.7595 46.662 15.8264 46.5924 15.9212C46.5017 16.1611 46.4608 16.4169 46.4724 16.6732C46.4654 16.7752 46.4504 17.5095 46.4274 18.8762V22.4742C46.4274 23.1832 46.4334 23.8712 46.4514 24.5412C46.4345 24.8376 46.4742 25.1346 46.5684 25.4162C46.6416 25.5161 46.7461 25.5886 46.8654 25.6222C47.25 25.6909 47.6408 25.7197 48.0314 25.7082Z" fill="black"/>
<path d="M59.6034 24.8201L59.2874 25.5451C58.694 25.8362 58.0693 26.0583 57.4254 26.2071C56.7748 26.3475 56.1108 26.4155 55.4454 26.4101C54.6547 26.4165 53.8669 26.3155 53.1034 26.1101C52.4315 25.929 51.7945 25.6373 51.2184 25.2471C50.2265 24.5843 49.4868 23.6068 49.1184 22.4721C48.9339 21.8926 48.8431 21.2873 48.8494 20.6791C48.8322 19.9073 48.9854 19.1411 49.2981 18.4353C49.6107 17.7294 50.0752 17.1011 50.6584 16.5951C52.0393 15.4518 53.8013 14.8724 55.5914 14.9731C56.0496 14.9716 56.5075 14.9987 56.9624 15.0541C57.4784 15.1282 57.9899 15.2314 58.4944 15.3631C59.0994 15.5151 59.4664 15.6031 59.6034 15.6311C59.4891 15.8993 59.4001 16.1775 59.3374 16.4621C59.244 16.9669 59.1849 17.4774 59.1604 17.9901H58.6714L58.6634 17.0821C58.6355 16.8299 58.538 16.5904 58.3819 16.3904C58.2258 16.1903 58.0172 16.0375 57.7794 15.9491C57.0302 15.6669 56.231 15.5416 55.4314 15.5811C54.7674 15.5755 54.1064 15.6696 53.4704 15.8601C52.94 16.031 52.4543 16.3176 52.0484 16.6991C51.6172 17.1123 51.2743 17.6087 51.0404 18.1581C50.7597 18.8645 50.625 19.6203 50.6444 20.3801C50.6139 21.0781 50.7318 21.7746 50.9904 22.4236C51.249 23.0726 51.6423 23.6594 52.1444 24.1451C53.2273 25.1254 54.6543 25.637 56.1134 25.5681C56.8119 25.5743 57.5074 25.4769 58.1774 25.2791C58.6342 25.1348 59.0677 24.9249 59.4644 24.6561L59.6034 24.8201Z" fill="black"/>
<path d="M11.4394 24.8199L11.1234 25.5449C10.5306 25.8357 9.90655 26.0578 9.26337 26.2069C8.61217 26.3472 7.94749 26.4153 7.28137 26.4099C6.49073 26.4162 5.70289 26.3153 4.93937 26.1099C4.26739 25.9292 3.6303 25.6375 3.05437 25.2469C2.54684 24.9036 2.10005 24.4781 1.73237 23.9879C1.39463 23.527 1.13235 23.0153 0.955371 22.4719C0.770045 21.8926 0.678887 21.2872 0.685371 20.6789C0.668278 19.9073 0.821319 19.1413 1.13362 18.4355C1.44592 17.7297 1.90982 17.1013 2.49237 16.5949C3.87463 15.4525 5.63687 14.8733 7.42737 14.9729C7.88561 14.9714 8.3435 14.9985 8.79837 15.0539C9.31445 15.128 9.82593 15.2312 10.3304 15.3629C10.9334 15.5149 11.3044 15.6029 11.4394 15.6309C11.326 15.8994 11.237 16.1775 11.1734 16.4619C11.0798 16.9666 11.0213 17.4772 10.9984 17.9899H10.5094L10.5004 17.0819C10.4724 16.8296 10.3749 16.59 10.2186 16.3899C10.0623 16.1898 9.85345 16.0371 9.61537 15.9489C8.86624 15.6665 8.067 15.5412 7.26737 15.5809C6.60343 15.5753 5.94241 15.6694 5.30637 15.8599C4.77545 16.0307 4.28908 16.3173 3.88237 16.6989C3.45247 17.1128 3.11033 17.609 2.87637 18.1579C2.59475 18.864 2.46001 19.6201 2.48037 20.3799C2.44989 21.0779 2.56783 21.7744 2.8264 22.4234C3.08497 23.0724 3.47828 23.6592 3.98037 24.1449C5.06311 25.1255 6.49024 25.6372 7.94937 25.5679C8.64788 25.5743 9.34346 25.4769 10.0134 25.2789C10.4702 25.1346 10.9037 24.9247 11.3004 24.6559L11.4394 24.8199Z" fill="black"/>
<path d="M5.33426 0.990145V0.473145C5.90126 0.513145 6.44359 0.533145 6.96126 0.533145C7.48726 0.533145 7.98926 0.513145 8.47026 0.473145C8.94826 1.50814 9.38459 2.41214 9.77926 3.18514L12.8613 9.21914L15.6453 3.69314C16.4023 2.18921 16.9079 1.11588 17.1623 0.473145C17.7333 0.513145 18.2166 0.533145 18.6123 0.533145C18.9733 0.533145 19.5573 0.513145 20.3693 0.473145V0.990145C19.9763 0.978698 19.5831 1.00549 19.1953 1.07014C19.0814 1.09815 18.9803 1.16367 18.9083 1.25614C18.8115 1.49127 18.7697 1.74542 18.7863 1.99914C18.7803 2.10214 18.7683 2.83114 18.7463 4.18614V7.75314C18.7463 8.45614 18.7596 9.13914 18.7863 9.80214C18.7706 10.0955 18.81 10.3892 18.9023 10.6681C18.9761 10.7683 19.0814 10.8408 19.2013 10.8741C19.5865 10.9433 19.978 10.9718 20.3693 10.9591V11.4561C19.2783 11.4131 18.5093 11.3961 18.0613 11.3961C17.6993 11.3961 16.9003 11.4131 15.6603 11.4561V10.9591C16.0548 10.9712 16.4495 10.9427 16.8383 10.8741C16.9507 10.8484 17.0507 10.7844 17.1213 10.6931C17.2176 10.4562 17.259 10.2004 17.2423 9.94514C17.2493 9.83614 17.2623 9.10714 17.2823 7.74914V2.08114L14.4793 7.66514C14.0413 8.53414 13.6983 9.23814 13.4473 9.76714C13.2683 10.1511 12.9976 10.7661 12.6353 11.6121H12.3193C12.2655 11.4504 12.2004 11.2927 12.1243 11.1401L11.5703 10.0091L7.68826 2.34214V7.74914C7.68826 8.45114 7.70726 9.13614 7.74726 9.80014C7.73065 10.094 7.77071 10.3883 7.86526 10.6671C7.93873 10.7683 8.04458 10.8413 8.16526 10.8741C8.55222 10.9433 8.94536 10.9718 9.33826 10.9591V11.456L7.37726 11.396L5.33426 11.456V10.9591C5.72548 10.9712 6.11692 10.9428 6.50226 10.8741C6.61642 10.8465 6.71875 10.783 6.79426 10.6931C6.88428 10.455 6.92576 10.2014 6.91626 9.94708C6.92226 9.83908 6.93626 9.10908 6.95526 7.75308V4.18618C6.95526 3.49012 6.94226 2.80745 6.91626 2.13818C6.93102 1.84477 6.89135 1.55116 6.79926 1.27218C6.72494 1.17336 6.61968 1.10225 6.50026 1.07018C6.11512 1.00568 5.7246 0.978842 5.33426 0.990145Z" fill="black"/>
<path d="M22.6124 11.406C23.0714 11.406 23.7554 11.42 24.6734 11.457V10.965C24.3196 10.9711 23.966 10.9467 23.6164 10.892C23.5121 10.8757 23.4156 10.8271 23.3404 10.753C23.2966 10.7046 23.273 10.6413 23.2744 10.576C23.3056 10.3026 23.3859 10.037 23.5114 9.79202L24.3884 7.80002H29.0974L30.1044 10.175C30.169 10.3137 30.2067 10.4633 30.2154 10.616C30.2166 10.6491 30.211 10.682 30.199 10.7128C30.1869 10.7436 30.1687 10.7716 30.1454 10.795C30.0706 10.8572 29.9798 10.8971 29.8834 10.91C29.5167 10.9487 29.1481 10.9671 28.7794 10.965V11.457L31.3954 11.406C31.7314 11.406 32.3234 11.42 33.1694 11.457V10.965C32.8898 10.9795 32.6097 10.9477 32.3404 10.871C32.1945 10.7907 32.0769 10.6675 32.0034 10.518C31.8174 10.192 31.4427 9.40036 30.8794 8.14302L27.3984 0.374023H26.8854C26.1564 2.03502 25.6834 3.10302 25.4584 3.58012L23.4234 7.94612C22.8134 9.21012 22.46 9.93712 22.3634 10.1271C22.2671 10.3531 22.1366 10.5629 21.9764 10.7491C21.8928 10.8255 21.793 10.882 21.6844 10.9141C21.4183 10.9537 21.1493 10.9707 20.8804 10.9651V11.4571C21.5084 11.4201 22.0854 11.406 22.6124 11.406ZM26.7394 2.49406L28.7724 7.14806H24.6674L26.7394 2.49406Z" fill="black"/>
<path d="M39.9264 2.12409C40.13 1.85916 40.2928 1.56526 40.4094 1.25214C40.4103 1.20608 40.3959 1.16101 40.3684 1.12406C40.3408 1.08711 40.3018 1.0604 40.2574 1.04814C39.8618 0.983938 39.461 0.95682 39.0604 0.967145V0.473145C40.0634 0.506145 40.6534 0.521145 41.2114 0.521145C41.7494 0.521145 42.0444 0.506145 43.1094 0.473145V0.967145C42.7598 0.955176 42.4099 0.982344 42.0664 1.04814C41.9175 1.08344 41.7769 1.14731 41.6524 1.23619C41.4117 1.46071 41.198 1.7124 41.0154 1.98619L38.6364 5.39419C38.3474 5.81491 38.0887 6.2557 37.8624 6.71319C37.8045 6.86109 37.7743 7.01838 37.7734 7.17719V7.76519C37.7734 8.46514 37.7864 9.14819 37.8204 9.80819C37.8033 10.1018 37.842 10.396 37.9344 10.6752C38.0082 10.7738 38.1121 10.8458 38.2304 10.8802C38.6092 10.9473 38.9938 10.9754 39.3784 10.9642V11.4572C38.4974 11.4192 37.7354 11.4052 37.0944 11.4052C36.4784 11.4052 35.6634 11.4192 34.6534 11.4572V10.9642C35.0392 10.9748 35.4251 10.9467 35.8054 10.8802C35.9165 10.8528 36.0152 10.7887 36.0854 10.6982C36.1816 10.4628 36.2253 10.2092 36.2134 9.95519C36.2194 9.84715 36.235 9.11715 36.2604 7.76519V6.86719C36.1454 6.63617 36.035 6.42884 35.9294 6.24519C35.8534 6.11616 35.5784 5.67383 35.1044 4.91819L33.0364 1.98619C32.8792 1.7134 32.6884 1.46143 32.4684 1.23619C32.35 1.14693 32.2145 1.08293 32.0704 1.04814C31.7337 0.981415 31.3904 0.954231 31.0474 0.967145V0.473145C32.1124 0.506145 32.4324 0.521145 32.9684 0.521145C33.5294 0.521145 34.9604 0.506145 35.9644 0.473145V0.967145C35.5349 0.95895 35.1054 0.986041 34.6804 1.04814C34.6344 1.06065 34.5933 1.08688 34.5625 1.12332C34.5318 1.15976 34.5129 1.2047 34.5084 1.25214C34.5982 1.56262 34.7366 1.85692 34.9184 2.12414L37.3414 6.03814L39.9264 2.12409Z" fill="black"/>
<path d="M44.7964 3.01434C45.1018 2.34329 45.6128 1.7868 46.2554 1.42534C46.9472 1.04828 47.7257 0.858996 48.5134 0.87634C49.0772 0.871972 49.6379 0.959797 50.1734 1.13634C50.6243 1.27811 51.0472 1.49702 51.4234 1.78334C51.743 2.03963 52.0222 2.34271 52.2514 2.68234C52.4901 3.03611 52.6783 3.4215 52.8104 3.82734C53.0428 4.56064 53.1575 5.32613 53.1504 6.09534C53.1675 6.96851 53.0059 7.83595 52.6754 8.64434C52.3855 9.34828 51.8845 9.94501 51.2414 10.3523C50.5589 10.7662 49.7722 10.9757 48.9744 10.9563C48.3909 10.9633 47.8111 10.8636 47.2634 10.6623C46.7357 10.4541 46.2577 10.1372 45.8604 9.73228C45.4248 9.28443 45.0813 8.75547 44.8494 8.17538C44.6755 7.7522 44.5446 7.31267 44.4584 6.86338C44.3575 6.37208 44.3059 5.87193 44.3044 5.37038C44.2906 4.55818 44.4587 3.75316 44.7964 3.01434ZM43.0034 8.20638C43.2463 8.91376 43.6424 9.55877 44.1634 10.0954C44.6877 10.6224 45.3246 11.0238 46.0264 11.2694C46.7909 11.5303 47.5935 11.6625 48.4014 11.6604C50.1146 11.7191 51.7811 11.095 53.0344 9.92538C53.631 9.37515 54.1034 8.70412 54.4204 7.95698C54.7373 7.20984 54.8914 6.40374 54.8724 5.59238C54.8763 5.07735 54.8148 4.56391 54.6894 4.06438C54.5869 3.63061 54.4215 3.21419 54.1984 2.82838C53.9088 2.33411 53.5348 1.89446 53.0934 1.52938C52.562 1.1 51.9524 0.777724 51.2984 0.58038C50.5114 0.331754 49.6897 0.210558 48.8644 0.22138C47.9875 0.205738 47.115 0.347656 46.2884 0.64038C45.5384 0.916875 44.8513 1.34051 44.2674 1.88638C43.702 2.39884 43.2649 3.03699 42.9914 3.74938C42.4737 5.19067 42.4779 6.7679 43.0034 8.20638Z" fill="black"/>
<path d="M42.0424 31.5381H33.3254V41.3571C33.3254 45.8611 34.8924 49.0001 37.6264 51.1831L37.6244 49.8081C35.9794 47.7667 35.1604 45.1823 35.3294 42.5661V39.9951H38.6304V51.2071C38.6304 55.2951 37.4834 60.5021 30.1834 63.7641C23.2464 60.6641 21.8644 55.8081 21.7444 51.8241C25.0164 49.6271 26.9204 46.3221 26.9204 41.3571V39.9951H32.2694V37.9721H26.9204L24.9164 37.9711L19.7224 37.9721V49.7561C19.7224 50.1681 19.7334 50.5681 19.7554 50.9611V50.9621C20.4762 50.4972 21.1407 49.9502 21.7354 49.3321V39.9951H24.9164V42.5661C24.9164 45.9731 24.2874 50.1951 18.2034 52.9141C12.1194 50.1951 11.4894 45.9731 11.4894 42.5661V33.5441H24.9164V36.9971H26.9204V31.5381H9.48636V41.3571C9.48636 47.9101 12.8024 51.5701 18.2034 53.6131C18.8134 53.383 19.3964 53.1307 19.9524 52.8561C20.8854 58.8101 24.6084 62.3531 30.1834 64.4631C35.7414 62.3611 39.4584 58.8321 40.4054 52.9111C40.9274 53.1641 41.473 53.3981 42.0424 53.6131C47.4424 51.5701 50.7594 47.9101 50.7594 41.3571V31.5381H42.0424ZM48.7554 42.5661C48.7554 45.9721 48.1264 50.1951 42.0424 52.9141C41.5187 52.6812 41.0076 52.4208 40.5114 52.1341C40.6017 51.3446 40.6461 50.5506 40.6444 49.756V37.972H35.3294V33.544H48.7554V42.5661Z" fill="#0067B1"/>
</g>
<defs>
<clipPath id="clip0_2045_46">
<rect width="58.918" height="64.462" fill="white" transform="translate(0.685364)"/>
</clipPath>
</defs>
</svg>
