<svg width="21" height="22" viewBox="0 0 21 22" fill="none" xmlns="http://www.w3.org/2000/svg">
<path d="M20.8331 0.666504V7.67517H19.1577V3.5545L12.6867 9.97917C13.1416 10.6192 13.502 11.3085 13.7677 12.0472C14.0335 12.7856 14.1664 13.5476 14.1664 14.3332C14.1664 16.2847 13.4877 17.9393 12.1304 19.2968C10.7731 20.6544 9.11875 21.3332 7.16741 21.3332C5.2163 21.3332 3.56175 20.6545 2.20375 19.2972C0.845523 17.9398 0.166412 16.2855 0.166412 14.3342C0.166412 12.3831 0.84519 10.7285 2.20275 9.3705C3.5603 8.01228 5.21486 7.33317 7.16641 7.33317C7.94997 7.33317 8.70564 7.46639 9.43341 7.73284C10.1614 7.99928 10.846 8.35928 11.4871 8.81284L17.9581 2.34184H13.8244V0.666504H20.8331ZM7.16875 9.0085C5.6943 9.0085 4.43786 9.52684 3.39941 10.5635C2.36097 11.6004 1.84175 12.8562 1.84175 14.3308C1.84175 15.8053 2.36008 17.0617 3.39675 18.1002C4.43364 19.1386 5.68941 19.6578 7.16408 19.6578C8.63852 19.6578 9.89497 19.1395 10.9334 18.1028C11.9719 17.0659 12.4911 15.8102 12.4911 14.3355C12.4911 12.8611 11.9727 11.6046 10.9361 10.5662C9.89919 9.52773 8.64341 9.0085 7.16875 9.0085Z" fill="#1C1B1F"/>
</svg>
